<?xml version="1.0" encoding="UTF-8" standalone="no"?>
<!DOCTYPE svg PUBLIC "-//W3C//DTD SVG 1.1//EN"
 "http://www.w3.org/Graphics/SVG/1.1/DTD/svg11.dtd">
<!-- Generated by graphviz version 5.0.0 (20220707.1540)
 -->
<!-- Title: StorageDiagram Pages: 1 -->
<svg width="2180pt" height="654pt"
 viewBox="0.00 0.00 2179.91 653.60" xmlns="http://www.w3.org/2000/svg" xmlns:xlink="http://www.w3.org/1999/xlink">
<g id="graph0" class="graph" transform="scale(1 1) rotate(0) translate(4 649.6)">
<title>StorageDiagram</title>
<polygon fill="white" stroke="transparent" points="-4,4 -4,-649.6 2175.91,-649.6 2175.91,4 -4,4"/>
<!-- 6 -->
<g id="node1" class="node">
<title>6</title>
<polygon fill="#f2f2f2" stroke="black" points="0,-159.3 0,-605.7 610.09,-605.7 610.09,-159.3 0,-159.3"/>
<text text-anchor="middle" x="305.04" y="-589.1" font-family="Courier New" font-size="14.00">GasContract &lt;&lt;Contract&gt;&gt;</text>
<polyline fill="none" stroke="black" points="0,-580.9 610.09,-580.9 "/>
<text text-anchor="middle" x="29" y="-564.3" font-family="Courier New" font-size="14.00">slot</text>
<polyline fill="none" stroke="black" points="0,-556.1 58.01,-556.1 "/>
<text text-anchor="middle" x="29" y="-539.5" font-family="Courier New" font-size="14.00">0</text>
<polyline fill="none" stroke="black" points="0,-531.3 58.01,-531.3 "/>
<text text-anchor="middle" x="29" y="-514.7" font-family="Courier New" font-size="14.00">1</text>
<polyline fill="none" stroke="black" points="0,-506.5 58.01,-506.5 "/>
<text text-anchor="middle" x="29" y="-489.9" font-family="Courier New" font-size="14.00">2</text>
<polyline fill="none" stroke="black" points="0,-481.7 58.01,-481.7 "/>
<text text-anchor="middle" x="29" y="-465.1" font-family="Courier New" font-size="14.00">3</text>
<polyline fill="none" stroke="black" points="0,-456.9 58.01,-456.9 "/>
<text text-anchor="middle" x="29" y="-440.3" font-family="Courier New" font-size="14.00">4</text>
<polyline fill="none" stroke="black" points="0,-432.1 58.01,-432.1 "/>
<text text-anchor="middle" x="29" y="-415.5" font-family="Courier New" font-size="14.00">5</text>
<polyline fill="none" stroke="black" points="0,-407.3 58.01,-407.3 "/>
<text text-anchor="middle" x="29" y="-390.7" font-family="Courier New" font-size="14.00">6</text>
<polyline fill="none" stroke="black" points="0,-382.5 58.01,-382.5 "/>
<text text-anchor="middle" x="29" y="-365.9" font-family="Courier New" font-size="14.00">7</text>
<polyline fill="none" stroke="black" points="0,-357.7 58.01,-357.7 "/>
<text text-anchor="middle" x="29" y="-341.1" font-family="Courier New" font-size="14.00">8</text>
<polyline fill="none" stroke="black" points="0,-332.9 58.01,-332.9 "/>
<text text-anchor="middle" x="29" y="-316.3" font-family="Courier New" font-size="14.00">9</text>
<polyline fill="none" stroke="black" points="0,-308.1 58.01,-308.1 "/>
<text text-anchor="middle" x="29" y="-291.5" font-family="Courier New" font-size="14.00">10</text>
<polyline fill="none" stroke="black" points="0,-283.3 58.01,-283.3 "/>
<text text-anchor="middle" x="29" y="-266.7" font-family="Courier New" font-size="14.00">11&#45;15</text>
<polyline fill="none" stroke="black" points="0,-258.5 58.01,-258.5 "/>
<text text-anchor="middle" x="29" y="-241.9" font-family="Courier New" font-size="14.00">16</text>
<polyline fill="none" stroke="black" points="0,-233.7 58.01,-233.7 "/>
<text text-anchor="middle" x="29" y="-217.1" font-family="Courier New" font-size="14.00">17</text>
<polyline fill="none" stroke="black" points="0,-208.9 58.01,-208.9 "/>
<text text-anchor="middle" x="29" y="-192.3" font-family="Courier New" font-size="14.00">18</text>
<polyline fill="none" stroke="black" points="0,-184.1 58.01,-184.1 "/>
<text text-anchor="middle" x="29" y="-167.5" font-family="Courier New" font-size="14.00">19</text>
<polyline fill="none" stroke="black" points="58.01,-159.3 58.01,-580.9 "/>
<text text-anchor="middle" x="334.05" y="-564.3" font-family="Courier New" font-size="14.00">type: &lt;inherited contract&gt;.variable (bytes)</text>
<polyline fill="none" stroke="black" points="58.01,-556.1 610.09,-556.1 "/>
<text text-anchor="middle" x="170.72" y="-539.5" font-family="Courier New" font-size="14.00">unallocated (12)</text>
<polyline fill="none" stroke="black" points="283.43,-531.3 283.43,-556.1 "/>
<text text-anchor="middle" x="446.55" y="-539.5" font-family="Courier New" font-size="14.00">address: Ownable._owner (20)</text>
<polyline fill="none" stroke="black" points="58.01,-531.3 610.09,-531.3 "/>
<text text-anchor="middle" x="333.63" y="-514.7" font-family="Courier New" font-size="14.00">uint256: Constants.tradeFlag (32)</text>
<polyline fill="none" stroke="black" points="58.01,-506.5 610.09,-506.5 "/>
<text text-anchor="middle" x="333.63" y="-489.9" font-family="Courier New" font-size="14.00">uint256: Constants.basicFlag (32)</text>
<polyline fill="none" stroke="black" points="58.01,-481.7 610.09,-481.7 "/>
<text text-anchor="middle" x="333.73" y="-465.1" font-family="Courier New" font-size="14.00">uint256: Constants.dividendFlag (32)</text>
<polyline fill="none" stroke="black" points="58.01,-456.9 610.09,-456.9 "/>
<text text-anchor="middle" x="133.22" y="-440.3" font-family="Courier New" font-size="14.00">unallocated (11)</text>
<polyline fill="none" stroke="black" points="208.43,-432.1 208.43,-456.9 "/>
<text text-anchor="middle" x="287.84" y="-440.3" font-family="Courier New" font-size="14.00">bool: isReady (1)</text>
<polyline fill="none" stroke="black" points="367.25,-432.1 367.25,-456.9 "/>
<text text-anchor="middle" x="488.67" y="-440.3" font-family="Courier New" font-size="14.00">address: contractOwner (20)</text>
<polyline fill="none" stroke="black" points="58.01,-432.1 610.09,-432.1 "/>
<text text-anchor="middle" x="333.63" y="-415.5" font-family="Courier New" font-size="14.00">uint256: paymentCounter (32)</text>
<polyline fill="none" stroke="black" points="58.01,-407.3 610.09,-407.3 "/>
<text text-anchor="middle" x="334.03" y="-390.7" font-family="Courier New" font-size="14.00">mapping(address=&gt;uint256): balances (32)</text>
<polyline fill="none" stroke="black" points="58.01,-382.5 610.09,-382.5 "/>
<text text-anchor="middle" x="333.72" y="-365.9" font-family="Courier New" font-size="14.00">uint256: tradePercent (32)</text>
<polyline fill="none" stroke="black" points="58.01,-357.7 610.09,-357.7 "/>
<text text-anchor="middle" x="333.62" y="-341.1" font-family="Courier New" font-size="14.00">uint256: tradeMode (32)</text>
<polyline fill="none" stroke="black" points="58.01,-332.9 610.09,-332.9 "/>
<text text-anchor="middle" x="333.94" y="-316.3" font-family="Courier New" font-size="14.00">mapping(address=&gt;Payment[]): payments (32)</text>
<polyline fill="none" stroke="black" points="58.01,-308.1 610.09,-308.1 "/>
<text text-anchor="middle" x="333.73" y="-291.5" font-family="Courier New" font-size="14.00">mapping(address=&gt;uint256): whitelist (32)</text>
<polyline fill="none" stroke="black" points="58.01,-283.3 610.09,-283.3 "/>
<text text-anchor="middle" x="333.93" y="-266.7" font-family="Courier New" font-size="14.00">address[5]: administrators (160)</text>
<polyline fill="none" stroke="black" points="58.01,-258.5 610.09,-258.5 "/>
<text text-anchor="middle" x="334.03" y="-241.9" font-family="Courier New" font-size="14.00">History[]: paymentHistory (32)</text>
<polyline fill="none" stroke="black" points="58.01,-233.7 610.09,-233.7 "/>
<text text-anchor="middle" x="333.82" y="-217.1" font-family="Courier New" font-size="14.00">uint256: wasLastOdd (32)</text>
<polyline fill="none" stroke="black" points="58.01,-208.9 610.09,-208.9 "/>
<text text-anchor="middle" x="334.04" y="-192.3" font-family="Courier New" font-size="14.00">mapping(address=&gt;uint256): isOddWhitelistUser (32)</text>
<polyline fill="none" stroke="black" points="58.01,-184.1 610.09,-184.1 "/>
<text text-anchor="middle" x="334.04" y="-167.5" font-family="Courier New" font-size="14.00">mapping(address=&gt;ImportantStruct): whiteListStruct (32)</text>
</g>
<!-- 1 -->
<g id="node2" class="node">
<title>1</title>
<polygon fill="#f2f2f2" stroke="black" points="871.72,-421.9 871.72,-645.1 1339.79,-645.1 1339.79,-421.9 871.72,-421.9"/>
<text text-anchor="middle" x="1105.76" y="-628.5" font-family="Courier New" font-size="14.00">Payment &lt;&lt;Struct&gt;&gt;</text>
<polyline fill="none" stroke="black" points="871.72,-620.3 1339.79,-620.3 "/>
<text text-anchor="middle" x="904.93" y="-603.7" font-family="Courier New" font-size="14.00">offset</text>
<polyline fill="none" stroke="black" points="871.72,-595.5 938.13,-595.5 "/>
<text text-anchor="middle" x="904.93" y="-578.9" font-family="Courier New" font-size="14.00">0</text>
<polyline fill="none" stroke="black" points="871.72,-570.7 938.13,-570.7 "/>
<text text-anchor="middle" x="904.93" y="-554.1" font-family="Courier New" font-size="14.00">1</text>
<polyline fill="none" stroke="black" points="871.72,-545.9 938.13,-545.9 "/>
<text text-anchor="middle" x="904.93" y="-529.3" font-family="Courier New" font-size="14.00">2</text>
<polyline fill="none" stroke="black" points="871.72,-521.1 938.13,-521.1 "/>
<text text-anchor="middle" x="904.93" y="-504.5" font-family="Courier New" font-size="14.00">3</text>
<polyline fill="none" stroke="black" points="871.72,-496.3 938.13,-496.3 "/>
<text text-anchor="middle" x="904.93" y="-479.7" font-family="Courier New" font-size="14.00">4</text>
<polyline fill="none" stroke="black" points="871.72,-471.5 938.13,-471.5 "/>
<text text-anchor="middle" x="904.93" y="-454.9" font-family="Courier New" font-size="14.00">5</text>
<polyline fill="none" stroke="black" points="871.72,-446.7 938.13,-446.7 "/>
<text text-anchor="middle" x="904.93" y="-430.1" font-family="Courier New" font-size="14.00">6</text>
<polyline fill="none" stroke="black" points="938.13,-421.9 938.13,-620.3 "/>
<text text-anchor="middle" x="1138.96" y="-603.7" font-family="Courier New" font-size="14.00">type: variable (bytes)</text>
<polyline fill="none" stroke="black" points="938.13,-595.5 1339.79,-595.5 "/>
<text text-anchor="middle" x="1013.34" y="-578.9" font-family="Courier New" font-size="14.00">unallocated (31)</text>
<polyline fill="none" stroke="black" points="1088.55,-570.7 1088.55,-595.5 "/>
<text text-anchor="middle" x="1214.17" y="-578.9" font-family="Courier New" font-size="14.00">PaymentType: paymentType (1)</text>
<polyline fill="none" stroke="black" points="938.13,-570.7 1339.79,-570.7 "/>
<text text-anchor="middle" x="1138.75" y="-554.1" font-family="Courier New" font-size="14.00">uint256: paymentID (32)</text>
<polyline fill="none" stroke="black" points="938.13,-545.9 1339.79,-545.9 "/>
<text text-anchor="middle" x="1025.84" y="-529.3" font-family="Courier New" font-size="14.00">unallocated (31)</text>
<polyline fill="none" stroke="black" points="1113.55,-521.1 1113.55,-545.9 "/>
<text text-anchor="middle" x="1226.47" y="-529.3" font-family="Courier New" font-size="14.00">bool: adminUpdated (1)</text>
<polyline fill="none" stroke="black" points="938.13,-521.1 1339.79,-521.1 "/>
<text text-anchor="middle" x="1138.85" y="-504.5" font-family="Courier New" font-size="14.00">string: recipientName (32)</text>
<polyline fill="none" stroke="black" points="938.13,-496.3 1339.79,-496.3 "/>
<text text-anchor="middle" x="1023.84" y="-479.7" font-family="Courier New" font-size="14.00">unallocated (12)</text>
<polyline fill="none" stroke="black" points="1109.55,-471.5 1109.55,-496.3 "/>
<text text-anchor="middle" x="1224.67" y="-479.7" font-family="Courier New" font-size="14.00">address: recipient (20)</text>
<polyline fill="none" stroke="black" points="938.13,-471.5 1339.79,-471.5 "/>
<text text-anchor="middle" x="1031.84" y="-454.9" font-family="Courier New" font-size="14.00">unallocated (12)</text>
<polyline fill="none" stroke="black" points="1125.55,-446.7 1125.55,-471.5 "/>
<text text-anchor="middle" x="1232.36" y="-454.9" font-family="Courier New" font-size="14.00">address: admin (20)</text>
<polyline fill="none" stroke="black" points="938.13,-446.7 1339.79,-446.7 "/>
<text text-anchor="middle" x="1138.64" y="-430.1" font-family="Courier New" font-size="14.00">uint256: amount (32)</text>
</g>
<!-- 6&#45;&gt;1 -->
<g id="edge1" class="edge">
<title>6:18&#45;&gt;1</title>
<path fill="none" stroke="black" d="M610.09,-320.5C654,-320.5 613.31,-383.29 646.09,-412.5 705.49,-465.44 785.39,-495.65 861.85,-512.75"/>
<polygon fill="black" stroke="black" points="861.13,-516.18 871.64,-514.88 862.61,-509.34 861.13,-516.18"/>
</g>
<!-- 2 -->
<g id="node3" class="node">
<title>2</title>
<polygon fill="#f2f2f2" stroke="black" points="946.53,-254.1 946.53,-402.9 1264.98,-402.9 1264.98,-254.1 946.53,-254.1"/>
<text text-anchor="middle" x="1105.76" y="-386.3" font-family="Courier New" font-size="14.00">address[5]: administrators &lt;&lt;Array&gt;&gt;</text>
<polyline fill="none" stroke="black" points="946.53,-378.1 1264.98,-378.1 "/>
<text text-anchor="middle" x="971.33" y="-361.5" font-family="Courier New" font-size="14.00">slot</text>
<polyline fill="none" stroke="black" points="946.53,-353.3 996.14,-353.3 "/>
<text text-anchor="middle" x="971.33" y="-336.7" font-family="Courier New" font-size="14.00">11</text>
<polyline fill="none" stroke="black" points="946.53,-328.5 996.14,-328.5 "/>
<text text-anchor="middle" x="971.33" y="-311.9" font-family="Courier New" font-size="14.00">12</text>
<polyline fill="none" stroke="black" points="946.53,-303.7 996.14,-303.7 "/>
<text text-anchor="middle" x="971.33" y="-287.1" font-family="Courier New" font-size="14.00">14</text>
<polyline fill="none" stroke="black" points="946.53,-278.9 996.14,-278.9 "/>
<text text-anchor="middle" x="971.33" y="-262.3" font-family="Courier New" font-size="14.00">15</text>
<polyline fill="none" stroke="black" points="996.14,-254.1 996.14,-378.1 "/>
<text text-anchor="middle" x="1130.26" y="-361.5" font-family="Courier New" font-size="14.00">type: variable (bytes)</text>
<polyline fill="none" stroke="black" points="996.14,-353.3 1264.38,-353.3 "/>
<text text-anchor="middle" x="1071.35" y="-336.7" font-family="Courier New" font-size="14.00">unallocated (12)</text>
<polyline fill="none" stroke="black" points="1146.56,-328.5 1146.56,-353.3 "/>
<text text-anchor="middle" x="1205.47" y="-336.7" font-family="Courier New" font-size="14.00">address (20)</text>
<polyline fill="none" stroke="black" points="996.14,-328.5 1264.38,-328.5 "/>
<text text-anchor="middle" x="1071.35" y="-311.9" font-family="Courier New" font-size="14.00">unallocated (12)</text>
<polyline fill="none" stroke="black" points="1146.56,-303.7 1146.56,-328.5 "/>
<text text-anchor="middle" x="1205.47" y="-311.9" font-family="Courier New" font-size="14.00">address (20)</text>
<polyline fill="none" stroke="black" points="996.14,-303.7 1264.38,-303.7 "/>
<text text-anchor="middle" x="1071.35" y="-287.1" font-family="Courier New" font-size="14.00">unallocated (12)</text>
<polyline fill="none" stroke="black" points="1146.56,-278.9 1146.56,-303.7 "/>
<text text-anchor="middle" x="1205.47" y="-287.1" font-family="Courier New" font-size="14.00">address (20)</text>
<polyline fill="none" stroke="black" points="996.14,-278.9 1264.38,-278.9 "/>
<text text-anchor="middle" x="1071.35" y="-262.3" font-family="Courier New" font-size="14.00">unallocated (12)</text>
<polyline fill="none" stroke="black" points="1146.56,-254.1 1146.56,-278.9 "/>
<text text-anchor="middle" x="1205.47" y="-262.3" font-family="Courier New" font-size="14.00">address (20)</text>
</g>
<!-- 6&#45;&gt;2 -->
<g id="edge2" class="edge">
<title>6:24&#45;&gt;2</title>
<path fill="none" stroke="black" d="M610.09,-270.5C719.18,-270.5 840.88,-284.59 936.28,-298.87"/>
<polygon fill="black" stroke="black" points="935.89,-302.36 946.3,-300.39 936.94,-295.44 935.89,-302.36"/>
</g>
<!-- 4 -->
<g id="node5" class="node">
<title>4</title>
<polygon fill="#f2f2f2" stroke="black" points="820.51,-143.9 820.51,-235.1 1391,-235.1 1391,-143.9 820.51,-143.9"/>
<text text-anchor="middle" x="1105.76" y="-218.5" font-family="Courier New" font-size="14.00">History[]: paymentHistory &lt;&lt;Array&gt;&gt;</text>
<text text-anchor="middle" x="1105.76" y="-201.7" font-family="Courier New" font-size="14.00">0x1b6847dc741a1b0cd08d278845f9d819d87b734759afb55fe2de5cb82a9ae672</text>
<polyline fill="none" stroke="black" points="820.51,-193.5 1391,-193.5 "/>
<text text-anchor="middle" x="929.21" y="-176.9" font-family="Courier New" font-size="14.00">offset</text>
<polyline fill="none" stroke="black" points="820.51,-168.7 1037.92,-168.7 "/>
<text text-anchor="middle" x="929.21" y="-152.1" font-family="Courier New" font-size="14.00">0&#45;2</text>
<polyline fill="none" stroke="black" points="1037.92,-143.9 1037.92,-193.5 "/>
<text text-anchor="middle" x="1214.33" y="-176.9" font-family="Courier New" font-size="14.00">type: variable (bytes)</text>
<polyline fill="none" stroke="black" points="1037.92,-168.7 1390.75,-168.7 "/>
<text text-anchor="middle" x="1214.33" y="-152.1" font-family="Courier New" font-size="14.00">History (96)</text>
</g>
<!-- 6&#45;&gt;4 -->
<g id="edge3" class="edge">
<title>6:29&#45;&gt;4</title>
<path fill="none" stroke="black" d="M610.09,-246.5C632.37,-246.5 716.97,-237.25 810.06,-226.21"/>
<polygon fill="black" stroke="black" points="810.75,-229.65 820.26,-224.99 809.92,-222.7 810.75,-229.65"/>
</g>
<!-- 5 -->
<g id="node6" class="node">
<title>5</title>
<polygon fill="#f2f2f2" stroke="black" points="646.09,-0.5 646.09,-124.5 1565.42,-124.5 1565.42,-0.5 646.09,-0.5"/>
<text text-anchor="middle" x="1105.76" y="-107.9" font-family="Courier New" font-size="14.00">ImportantStruct &lt;&lt;Struct&gt;&gt;</text>
<polyline fill="none" stroke="black" points="646.09,-99.7 1565.42,-99.7 "/>
<text text-anchor="middle" x="679.29" y="-83.1" font-family="Courier New" font-size="14.00">offset</text>
<polyline fill="none" stroke="black" points="646.09,-74.9 712.5,-74.9 "/>
<text text-anchor="middle" x="679.29" y="-58.3" font-family="Courier New" font-size="14.00">0</text>
<polyline fill="none" stroke="black" points="646.09,-50.1 712.5,-50.1 "/>
<text text-anchor="middle" x="679.29" y="-33.5" font-family="Courier New" font-size="14.00">1</text>
<polyline fill="none" stroke="black" points="646.09,-25.3 712.5,-25.3 "/>
<text text-anchor="middle" x="679.29" y="-8.7" font-family="Courier New" font-size="14.00">2</text>
<polyline fill="none" stroke="black" points="712.5,-0.5 712.5,-99.7 "/>
<text text-anchor="middle" x="1138.96" y="-83.1" font-family="Courier New" font-size="14.00">type: variable (bytes)</text>
<polyline fill="none" stroke="black" points="712.5,-74.9 1565.42,-74.9 "/>
<text text-anchor="middle" x="1138.51" y="-58.3" font-family="Courier New" font-size="14.00">uint256: amount (32)</text>
<polyline fill="none" stroke="black" points="712.5,-50.1 1565.42,-50.1 "/>
<text text-anchor="middle" x="1138.91" y="-33.5" font-family="Courier New" font-size="14.00">uint256: bigValue (32)</text>
<polyline fill="none" stroke="black" points="712.5,-25.3 1565.42,-25.3 "/>
<text text-anchor="middle" x="783.51" y="-8.7" font-family="Courier New" font-size="14.00">unallocated (9)</text>
<polyline fill="none" stroke="black" points="854.52,-0.5 854.52,-25.3 "/>
<text text-anchor="middle" x="946.53" y="-8.7" font-family="Courier New" font-size="14.00">address: sender (20)</text>
<polyline fill="none" stroke="black" points="1038.54,-0.5 1038.54,-25.3 "/>
<text text-anchor="middle" x="1143.16" y="-8.7" font-family="Courier New" font-size="14.00">bool: paymentStatus (1)</text>
<polyline fill="none" stroke="black" points="1247.78,-0.5 1247.78,-25.3 "/>
<text text-anchor="middle" x="1327.19" y="-8.7" font-family="Courier New" font-size="14.00">uint8: valueB (1)</text>
<polyline fill="none" stroke="black" points="1406.6,-0.5 1406.6,-25.3 "/>
<text text-anchor="middle" x="1486.01" y="-8.7" font-family="Courier New" font-size="14.00">uint8: valueA (1)</text>
</g>
<!-- 6&#45;&gt;5 -->
<g id="edge4" class="edge">
<title>6:38&#45;&gt;5</title>
<path fill="none" stroke="black" d="M610.09,-171.5C633.03,-171.5 625.71,-145.04 646.09,-134.5 649.76,-132.6 653.47,-130.75 657.21,-128.94"/>
<polygon fill="black" stroke="black" points="659.01,-131.97 666.58,-124.55 656.04,-125.63 659.01,-131.97"/>
</g>
<!-- 3 -->
<g id="node4" class="node">
<title>3</title>
<polygon fill="#f2f2f2" stroke="black" points="1601.42,-86.1 1601.42,-226.9 2171.91,-226.9 2171.91,-86.1 1601.42,-86.1"/>
<text text-anchor="middle" x="1886.67" y="-210.3" font-family="Courier New" font-size="14.00">History &lt;&lt;Struct&gt;&gt;</text>
<text text-anchor="middle" x="1886.67" y="-193.5" font-family="Courier New" font-size="14.00">0x1b6847dc741a1b0cd08d278845f9d819d87b734759afb55fe2de5cb82a9ae672</text>
<polyline fill="none" stroke="black" points="1601.42,-185.3 2171.91,-185.3 "/>
<text text-anchor="middle" x="1670.63" y="-168.7" font-family="Courier New" font-size="14.00">offset</text>
<polyline fill="none" stroke="black" points="1601.42,-160.5 1739.83,-160.5 "/>
<text text-anchor="middle" x="1670.63" y="-143.9" font-family="Courier New" font-size="14.00">0</text>
<polyline fill="none" stroke="black" points="1601.42,-135.7 1739.83,-135.7 "/>
<text text-anchor="middle" x="1670.63" y="-119.1" font-family="Courier New" font-size="14.00">1</text>
<polyline fill="none" stroke="black" points="1601.42,-110.9 1739.83,-110.9 "/>
<text text-anchor="middle" x="1670.63" y="-94.3" font-family="Courier New" font-size="14.00">2</text>
<polyline fill="none" stroke="black" points="1739.83,-86.1 1739.83,-185.3 "/>
<text text-anchor="middle" x="1955.66" y="-168.7" font-family="Courier New" font-size="14.00">type: variable (bytes)</text>
<polyline fill="none" stroke="black" points="1739.83,-160.5 2171.48,-160.5 "/>
<text text-anchor="middle" x="1955.65" y="-143.9" font-family="Courier New" font-size="14.00">uint256: lastUpdate (32)</text>
<polyline fill="none" stroke="black" points="1739.83,-135.7 2171.48,-135.7 "/>
<text text-anchor="middle" x="1833.04" y="-119.1" font-family="Courier New" font-size="14.00">unallocated (12)</text>
<polyline fill="none" stroke="black" points="1926.25,-110.9 1926.25,-135.7 "/>
<text text-anchor="middle" x="2048.87" y="-119.1" font-family="Courier New" font-size="14.00">address: updatedBy (20)</text>
<polyline fill="none" stroke="black" points="1739.83,-110.9 2171.48,-110.9 "/>
<text text-anchor="middle" x="1955.35" y="-94.3" font-family="Courier New" font-size="14.00">uint256: blockNumber (32)</text>
</g>
<!-- 4&#45;&gt;3 -->
<g id="edge5" class="edge">
<title>4:28&#45;&gt;3</title>
<path fill="none" stroke="black" d="M1391.76,-156.5C1456.29,-156.5 1525.57,-156.5 1591.23,-156.5"/>
<polygon fill="black" stroke="black" points="1591.31,-160 1601.31,-156.5 1591.31,-153 1591.31,-160"/>
</g>
</g>
</svg>
