<?xml version="1.0" encoding="UTF-8" standalone="no"?>
<!DOCTYPE svg PUBLIC "-//W3C//DTD SVG 1.1//EN"
 "http://www.w3.org/Graphics/SVG/1.1/DTD/svg11.dtd">
<!-- Generated by graphviz version 5.0.0 (20220707.1540)
 -->
<!-- Title: StorageDiagram Pages: 1 -->
<svg width="1508pt" height="493pt"
 viewBox="0.00 0.00 1507.82 493.20" xmlns="http://www.w3.org/2000/svg" xmlns:xlink="http://www.w3.org/1999/xlink">
<g id="graph0" class="graph" transform="scale(1 1) rotate(0) translate(4 489.2)">
<title>StorageDiagram</title>
<polygon fill="white" stroke="transparent" points="-4,4 -4,-489.2 1503.82,-489.2 1503.82,4 -4,4"/>
<!-- 4 -->
<g id="node1" class="node">
<title>4</title>
<polygon fill="#f2f2f2" stroke="black" points="0,-167.5 0,-440.3 527.68,-440.3 527.68,-167.5 0,-167.5"/>
<text text-anchor="middle" x="263.84" y="-423.7" font-family="Courier New" font-size="14.00">GasContract &lt;&lt;Contract&gt;&gt;</text>
<polyline fill="none" stroke="black" points="0,-415.5 527.68,-415.5 "/>
<text text-anchor="middle" x="24.8" y="-398.9" font-family="Courier New" font-size="14.00">slot</text>
<polyline fill="none" stroke="black" points="0,-390.7 49.61,-390.7 "/>
<text text-anchor="middle" x="24.8" y="-374.1" font-family="Courier New" font-size="14.00">0</text>
<polyline fill="none" stroke="black" points="0,-365.9 49.61,-365.9 "/>
<text text-anchor="middle" x="24.8" y="-349.3" font-family="Courier New" font-size="14.00">1</text>
<polyline fill="none" stroke="black" points="0,-341.1 49.61,-341.1 "/>
<text text-anchor="middle" x="24.8" y="-324.5" font-family="Courier New" font-size="14.00">2</text>
<polyline fill="none" stroke="black" points="0,-316.3 49.61,-316.3 "/>
<text text-anchor="middle" x="24.8" y="-299.7" font-family="Courier New" font-size="14.00">3</text>
<polyline fill="none" stroke="black" points="0,-291.5 49.61,-291.5 "/>
<text text-anchor="middle" x="24.8" y="-274.9" font-family="Courier New" font-size="14.00">4</text>
<polyline fill="none" stroke="black" points="0,-266.7 49.61,-266.7 "/>
<text text-anchor="middle" x="24.8" y="-250.1" font-family="Courier New" font-size="14.00">5</text>
<polyline fill="none" stroke="black" points="0,-241.9 49.61,-241.9 "/>
<text text-anchor="middle" x="24.8" y="-225.3" font-family="Courier New" font-size="14.00">6</text>
<polyline fill="none" stroke="black" points="0,-217.1 49.61,-217.1 "/>
<text text-anchor="middle" x="24.8" y="-200.5" font-family="Courier New" font-size="14.00">7&#45;11</text>
<polyline fill="none" stroke="black" points="0,-192.3 49.61,-192.3 "/>
<text text-anchor="middle" x="24.8" y="-175.7" font-family="Courier New" font-size="14.00">12</text>
<polyline fill="none" stroke="black" points="49.61,-167.5 49.61,-415.5 "/>
<text text-anchor="middle" x="288.64" y="-398.9" font-family="Courier New" font-size="14.00">type: &lt;inherited contract&gt;.variable (bytes)</text>
<polyline fill="none" stroke="black" points="49.61,-390.7 527.68,-390.7 "/>
<text text-anchor="middle" x="288.62" y="-374.1" font-family="Courier New" font-size="14.00">uint256: totalSupply (32)</text>
<polyline fill="none" stroke="black" points="49.61,-365.9 527.68,-365.9 "/>
<text text-anchor="middle" x="288.22" y="-349.3" font-family="Courier New" font-size="14.00">uint256: paymentCounter (32)</text>
<polyline fill="none" stroke="black" points="49.61,-341.1 527.68,-341.1 "/>
<text text-anchor="middle" x="288.63" y="-324.5" font-family="Courier New" font-size="14.00">mapping(address=&gt;uint256): balances (32)</text>
<polyline fill="none" stroke="black" points="49.61,-316.3 527.68,-316.3 "/>
<text text-anchor="middle" x="288.33" y="-299.7" font-family="Courier New" font-size="14.00">mapping(address=&gt;uint256): whitelist (32)</text>
<polyline fill="none" stroke="black" points="49.61,-291.5 527.68,-291.5 "/>
<text text-anchor="middle" x="288.64" y="-274.9" font-family="Courier New" font-size="14.00">mapping(address=&gt;uint256): isOddWhitelistUser (32)</text>
<polyline fill="none" stroke="black" points="49.61,-266.7 527.68,-266.7 "/>
<text text-anchor="middle" x="288.53" y="-250.1" font-family="Courier New" font-size="14.00">mapping(address=&gt;Payment[]): payments (32)</text>
<polyline fill="none" stroke="black" points="49.61,-241.9 527.68,-241.9 "/>
<text text-anchor="middle" x="288.64" y="-225.3" font-family="Courier New" font-size="14.00">mapping(address=&gt;ImportantStruct): whiteListStruct (32)</text>
<polyline fill="none" stroke="black" points="49.61,-217.1 527.68,-217.1 "/>
<text text-anchor="middle" x="288.53" y="-200.5" font-family="Courier New" font-size="14.00">address[5]: administrators (160)</text>
<polyline fill="none" stroke="black" points="49.61,-192.3 527.68,-192.3 "/>
<text text-anchor="middle" x="162.82" y="-175.7" font-family="Courier New" font-size="14.00">unallocated (12)</text>
<polyline fill="none" stroke="black" points="276.03,-167.5 276.03,-192.3 "/>
<text text-anchor="middle" x="401.84" y="-175.7" font-family="Courier New" font-size="14.00">address: owner (20)</text>
</g>
<!-- 1 -->
<g id="node2" class="node">
<title>1</title>
<polygon fill="#f2f2f2" stroke="black" points="609.49,-311.1 609.49,-484.7 1454.01,-484.7 1454.01,-311.1 609.49,-311.1"/>
<text text-anchor="middle" x="1031.75" y="-468.1" font-family="Courier New" font-size="14.00">Payment &lt;&lt;Struct&gt;&gt;</text>
<polyline fill="none" stroke="black" points="609.49,-459.9 1454.01,-459.9 "/>
<text text-anchor="middle" x="642.69" y="-443.3" font-family="Courier New" font-size="14.00">offset</text>
<polyline fill="none" stroke="black" points="609.49,-435.1 675.9,-435.1 "/>
<text text-anchor="middle" x="642.69" y="-418.5" font-family="Courier New" font-size="14.00">0</text>
<polyline fill="none" stroke="black" points="609.49,-410.3 675.9,-410.3 "/>
<text text-anchor="middle" x="642.69" y="-393.7" font-family="Courier New" font-size="14.00">1</text>
<polyline fill="none" stroke="black" points="609.49,-385.5 675.9,-385.5 "/>
<text text-anchor="middle" x="642.69" y="-368.9" font-family="Courier New" font-size="14.00">2</text>
<polyline fill="none" stroke="black" points="609.49,-360.7 675.9,-360.7 "/>
<text text-anchor="middle" x="642.69" y="-344.1" font-family="Courier New" font-size="14.00">3</text>
<polyline fill="none" stroke="black" points="609.49,-335.9 675.9,-335.9 "/>
<text text-anchor="middle" x="642.69" y="-319.3" font-family="Courier New" font-size="14.00">4</text>
<polyline fill="none" stroke="black" points="675.9,-311.1 675.9,-459.9 "/>
<text text-anchor="middle" x="1064.95" y="-443.3" font-family="Courier New" font-size="14.00">type: variable (bytes)</text>
<polyline fill="none" stroke="black" points="675.9,-435.1 1454.01,-435.1 "/>
<text text-anchor="middle" x="1064.51" y="-418.5" font-family="Courier New" font-size="14.00">uint256: paymentID (32)</text>
<polyline fill="none" stroke="black" points="675.9,-410.3 1454.01,-410.3 "/>
<text text-anchor="middle" x="1064.91" y="-393.7" font-family="Courier New" font-size="14.00">uint256: amount (32)</text>
<polyline fill="none" stroke="black" points="675.9,-385.5 1454.01,-385.5 "/>
<text text-anchor="middle" x="1064.61" y="-368.9" font-family="Courier New" font-size="14.00">string: recipientName (32)</text>
<polyline fill="none" stroke="black" points="675.9,-360.7 1454.01,-360.7 "/>
<text text-anchor="middle" x="855.61" y="-344.1" font-family="Courier New" font-size="14.00">unallocated (12)</text>
<polyline fill="none" stroke="black" points="1035.32,-335.9 1035.32,-360.7 "/>
<text text-anchor="middle" x="1244.43" y="-344.1" font-family="Courier New" font-size="14.00">address: recipient (20)</text>
<polyline fill="none" stroke="black" points="675.9,-335.9 1454.01,-335.9 "/>
<text text-anchor="middle" x="751.11" y="-319.3" font-family="Courier New" font-size="14.00">unallocated (10)</text>
<polyline fill="none" stroke="black" points="826.32,-311.1 826.32,-335.9 "/>
<text text-anchor="middle" x="926.73" y="-319.3" font-family="Courier New" font-size="14.00">bool: adminUpdated (1)</text>
<polyline fill="none" stroke="black" points="1027.15,-311.1 1027.15,-335.9 "/>
<text text-anchor="middle" x="1152.77" y="-319.3" font-family="Courier New" font-size="14.00">PaymentType: paymentType (1)</text>
<polyline fill="none" stroke="black" points="1278.39,-311.1 1278.39,-335.9 "/>
<text text-anchor="middle" x="1366.2" y="-319.3" font-family="Courier New" font-size="14.00">address: admin (20)</text>
</g>
<!-- 4&#45;&gt;1 -->
<g id="edge1" class="edge">
<title>4:13&#45;&gt;1</title>
<path fill="none" stroke="black" d="M527.68,-253.9C554.35,-253.9 541.16,-287.62 563.68,-301.9 575.43,-309.35 587.64,-316.23 600.21,-322.59"/>
<polygon fill="black" stroke="black" points="598.91,-325.85 609.43,-327.13 602,-319.57 598.91,-325.85"/>
</g>
<!-- 2 -->
<g id="node3" class="node">
<title>2</title>
<polygon fill="#f2f2f2" stroke="black" points="563.68,-167.9 563.68,-291.9 1499.82,-291.9 1499.82,-167.9 563.68,-167.9"/>
<text text-anchor="middle" x="1031.75" y="-275.3" font-family="Courier New" font-size="14.00">ImportantStruct &lt;&lt;Struct&gt;&gt;</text>
<polyline fill="none" stroke="black" points="563.68,-267.1 1499.82,-267.1 "/>
<text text-anchor="middle" x="596.88" y="-250.5" font-family="Courier New" font-size="14.00">offset</text>
<polyline fill="none" stroke="black" points="563.68,-242.3 630.09,-242.3 "/>
<text text-anchor="middle" x="596.88" y="-225.7" font-family="Courier New" font-size="14.00">0</text>
<polyline fill="none" stroke="black" points="563.68,-217.5 630.09,-217.5 "/>
<text text-anchor="middle" x="596.88" y="-200.9" font-family="Courier New" font-size="14.00">1</text>
<polyline fill="none" stroke="black" points="563.68,-192.7 630.09,-192.7 "/>
<text text-anchor="middle" x="596.88" y="-176.1" font-family="Courier New" font-size="14.00">2</text>
<polyline fill="none" stroke="black" points="630.09,-167.9 630.09,-267.1 "/>
<text text-anchor="middle" x="1064.95" y="-250.5" font-family="Courier New" font-size="14.00">type: variable (bytes)</text>
<polyline fill="none" stroke="black" points="630.09,-242.3 1499.82,-242.3 "/>
<text text-anchor="middle" x="1064.6" y="-225.7" font-family="Courier New" font-size="14.00">uint256: amount (32)</text>
<polyline fill="none" stroke="black" points="630.09,-217.5 1499.82,-217.5 "/>
<text text-anchor="middle" x="1064.5" y="-200.9" font-family="Courier New" font-size="14.00">uint256: bigValue (32)</text>
<polyline fill="none" stroke="black" points="630.09,-192.7 1499.82,-192.7 "/>
<text text-anchor="middle" x="701.1" y="-176.1" font-family="Courier New" font-size="14.00">unallocated (7)</text>
<polyline fill="none" stroke="black" points="772.11,-167.9 772.11,-192.7 "/>
<text text-anchor="middle" x="876.73" y="-176.1" font-family="Courier New" font-size="14.00">bool: paymentStatus (1)</text>
<polyline fill="none" stroke="black" points="981.34,-167.9 981.34,-192.7 "/>
<text text-anchor="middle" x="1064.95" y="-176.1" font-family="Courier New" font-size="14.00">uint16: valueB (2)</text>
<polyline fill="none" stroke="black" points="1148.57,-167.9 1148.57,-192.7 "/>
<text text-anchor="middle" x="1232.18" y="-176.1" font-family="Courier New" font-size="14.00">uint16: valueA (2)</text>
<polyline fill="none" stroke="black" points="1315.79,-167.9 1315.79,-192.7 "/>
<text text-anchor="middle" x="1407.8" y="-176.1" font-family="Courier New" font-size="14.00">address: sender (20)</text>
</g>
<!-- 4&#45;&gt;2 -->
<g id="edge2" class="edge">
<title>4:20&#45;&gt;2</title>
<path fill="none" stroke="black" d="M527.68,-229.9C536.16,-229.9 544.71,-229.9 553.33,-229.9"/>
<polygon fill="black" stroke="black" points="553.47,-233.4 563.47,-229.9 553.47,-226.4 553.47,-233.4"/>
</g>
<!-- 3 -->
<g id="node4" class="node">
<title>3</title>
<polygon fill="#f2f2f2" stroke="black" points="872.52,-0.5 872.52,-149.3 1190.97,-149.3 1190.97,-0.5 872.52,-0.5"/>
<text text-anchor="middle" x="1031.75" y="-132.7" font-family="Courier New" font-size="14.00">address[5]: administrators &lt;&lt;Array&gt;&gt;</text>
<polyline fill="none" stroke="black" points="872.52,-124.5 1190.97,-124.5 "/>
<text text-anchor="middle" x="897.33" y="-107.9" font-family="Courier New" font-size="14.00">slot</text>
<polyline fill="none" stroke="black" points="872.52,-99.7 922.13,-99.7 "/>
<text text-anchor="middle" x="897.33" y="-83.1" font-family="Courier New" font-size="14.00">7</text>
<polyline fill="none" stroke="black" points="872.52,-74.9 922.13,-74.9 "/>
<text text-anchor="middle" x="897.33" y="-58.3" font-family="Courier New" font-size="14.00">8</text>
<polyline fill="none" stroke="black" points="872.52,-50.1 922.13,-50.1 "/>
<text text-anchor="middle" x="897.33" y="-33.5" font-family="Courier New" font-size="14.00">10</text>
<polyline fill="none" stroke="black" points="872.52,-25.3 922.13,-25.3 "/>
<text text-anchor="middle" x="897.33" y="-8.7" font-family="Courier New" font-size="14.00">11</text>
<polyline fill="none" stroke="black" points="922.13,-0.5 922.13,-124.5 "/>
<text text-anchor="middle" x="1056.25" y="-107.9" font-family="Courier New" font-size="14.00">type: variable (bytes)</text>
<polyline fill="none" stroke="black" points="922.13,-99.7 1190.37,-99.7 "/>
<text text-anchor="middle" x="997.34" y="-83.1" font-family="Courier New" font-size="14.00">unallocated (12)</text>
<polyline fill="none" stroke="black" points="1072.55,-74.9 1072.55,-99.7 "/>
<text text-anchor="middle" x="1131.46" y="-83.1" font-family="Courier New" font-size="14.00">address (20)</text>
<polyline fill="none" stroke="black" points="922.13,-74.9 1190.37,-74.9 "/>
<text text-anchor="middle" x="997.34" y="-58.3" font-family="Courier New" font-size="14.00">unallocated (12)</text>
<polyline fill="none" stroke="black" points="1072.55,-50.1 1072.55,-74.9 "/>
<text text-anchor="middle" x="1131.46" y="-58.3" font-family="Courier New" font-size="14.00">address (20)</text>
<polyline fill="none" stroke="black" points="922.13,-50.1 1190.37,-50.1 "/>
<text text-anchor="middle" x="997.34" y="-33.5" font-family="Courier New" font-size="14.00">unallocated (12)</text>
<polyline fill="none" stroke="black" points="1072.55,-25.3 1072.55,-50.1 "/>
<text text-anchor="middle" x="1131.46" y="-33.5" font-family="Courier New" font-size="14.00">address (20)</text>
<polyline fill="none" stroke="black" points="922.13,-25.3 1190.37,-25.3 "/>
<text text-anchor="middle" x="997.34" y="-8.7" font-family="Courier New" font-size="14.00">unallocated (12)</text>
<polyline fill="none" stroke="black" points="1072.55,-0.5 1072.55,-25.3 "/>
<text text-anchor="middle" x="1131.46" y="-8.7" font-family="Courier New" font-size="14.00">address (20)</text>
</g>
<!-- 4&#45;&gt;3 -->
<g id="edge3" class="edge">
<title>4:25&#45;&gt;3</title>
<path fill="none" stroke="black" d="M527.68,-204.9C553.64,-204.9 541.45,-172.3 563.68,-158.9 653.13,-105 768.51,-83.88 862.21,-76.3"/>
<polygon fill="black" stroke="black" points="862.66,-79.77 872.36,-75.52 862.12,-72.79 862.66,-79.77"/>
</g>
</g>
</svg>
