<?xml version="1.0" encoding="UTF-8" standalone="no"?>
<!DOCTYPE svg PUBLIC "-//W3C//DTD SVG 1.1//EN"
 "http://www.w3.org/Graphics/SVG/1.1/DTD/svg11.dtd">
<!-- Generated by graphviz version 5.0.0 (20220707.1540)
 -->
<!-- Title: StorageDiagram Pages: 1 -->
<svg width="1331pt" height="329pt"
 viewBox="0.00 0.00 1331.39 328.60" xmlns="http://www.w3.org/2000/svg" xmlns:xlink="http://www.w3.org/1999/xlink">
<g id="graph0" class="graph" transform="scale(1 1) rotate(0) translate(4 324.6)">
<title>StorageDiagram</title>
<polygon fill="white" stroke="transparent" points="-4,4 -4,-324.6 1327.39,-324.6 1327.39,4 -4,4"/>
<!-- 3 -->
<g id="node1" class="node">
<title>3</title>
<polygon fill="#f2f2f2" stroke="black" points="0,-121.7 0,-320.1 861.33,-320.1 861.33,-121.7 0,-121.7"/>
<text text-anchor="middle" x="430.66" y="-303.5" font-family="Courier New" font-size="14.00">GasContract &lt;&lt;Contract&gt;&gt;</text>
<polyline fill="none" stroke="black" points="0,-295.3 861.33,-295.3 "/>
<text text-anchor="middle" x="24.8" y="-278.7" font-family="Courier New" font-size="14.00">slot</text>
<polyline fill="none" stroke="black" points="0,-270.5 49.61,-270.5 "/>
<text text-anchor="middle" x="24.8" y="-253.9" font-family="Courier New" font-size="14.00">0</text>
<polyline fill="none" stroke="black" points="0,-245.7 49.61,-245.7 "/>
<text text-anchor="middle" x="24.8" y="-229.1" font-family="Courier New" font-size="14.00">1</text>
<polyline fill="none" stroke="black" points="0,-220.9 49.61,-220.9 "/>
<text text-anchor="middle" x="24.8" y="-204.3" font-family="Courier New" font-size="14.00">2</text>
<polyline fill="none" stroke="black" points="0,-196.1 49.61,-196.1 "/>
<text text-anchor="middle" x="24.8" y="-179.5" font-family="Courier New" font-size="14.00">3</text>
<polyline fill="none" stroke="black" points="0,-171.3 49.61,-171.3 "/>
<text text-anchor="middle" x="24.8" y="-154.7" font-family="Courier New" font-size="14.00">4</text>
<polyline fill="none" stroke="black" points="0,-146.5 49.61,-146.5 "/>
<text text-anchor="middle" x="24.8" y="-129.9" font-family="Courier New" font-size="14.00">5&#45;9</text>
<polyline fill="none" stroke="black" points="49.61,-121.7 49.61,-295.3 "/>
<text text-anchor="middle" x="455.47" y="-278.7" font-family="Courier New" font-size="14.00">type: &lt;inherited contract&gt;.variable (bytes)</text>
<polyline fill="none" stroke="black" points="49.61,-270.5 861.33,-270.5 "/>
<text text-anchor="middle" x="124.82" y="-253.9" font-family="Courier New" font-size="14.00">unallocated (10)</text>
<polyline fill="none" stroke="black" points="200.03,-245.7 200.03,-270.5 "/>
<text text-anchor="middle" x="296.24" y="-253.9" font-family="Courier New" font-size="14.00">uint8: wasLastOdd (1)</text>
<polyline fill="none" stroke="black" points="392.46,-245.7 392.46,-270.5 "/>
<text text-anchor="middle" x="505.47" y="-253.9" font-family="Courier New" font-size="14.00">uint8: paymentCounter (1)</text>
<polyline fill="none" stroke="black" points="618.49,-245.7 618.49,-270.5 "/>
<text text-anchor="middle" x="739.91" y="-253.9" font-family="Courier New" font-size="14.00">address: contractOwner (20)</text>
<polyline fill="none" stroke="black" points="49.61,-245.7 861.33,-245.7 "/>
<text text-anchor="middle" x="455.12" y="-229.1" font-family="Courier New" font-size="14.00">uint256: totalSupply (32)</text>
<polyline fill="none" stroke="black" points="49.61,-220.9 861.33,-220.9 "/>
<text text-anchor="middle" x="455.13" y="-204.3" font-family="Courier New" font-size="14.00">mapping(address=&gt;uint256): balances (32)</text>
<polyline fill="none" stroke="black" points="49.61,-196.1 861.33,-196.1 "/>
<text text-anchor="middle" x="455.33" y="-179.5" font-family="Courier New" font-size="14.00">mapping(address=&gt;uint256): whitelist (32)</text>
<polyline fill="none" stroke="black" points="49.61,-171.3 861.33,-171.3 "/>
<text text-anchor="middle" x="455.14" y="-154.7" font-family="Courier New" font-size="14.00">mapping(address=&gt;ImportantStruct): whiteListStruct (32)</text>
<polyline fill="none" stroke="black" points="49.61,-146.5 861.33,-146.5 "/>
<text text-anchor="middle" x="455.03" y="-129.9" font-family="Courier New" font-size="14.00">address[5]: administrators (160)</text>
</g>
<!-- 1 -->
<g id="node2" class="node">
<title>1</title>
<polygon fill="#f2f2f2" stroke="black" points="897.33,-168.3 897.33,-267.5 1323.39,-267.5 1323.39,-168.3 897.33,-168.3"/>
<text text-anchor="middle" x="1110.36" y="-250.9" font-family="Courier New" font-size="14.00">ImportantStruct &lt;&lt;Struct&gt;&gt;</text>
<polyline fill="none" stroke="black" points="897.33,-242.7 1323.39,-242.7 "/>
<text text-anchor="middle" x="930.53" y="-226.1" font-family="Courier New" font-size="14.00">offset</text>
<polyline fill="none" stroke="black" points="897.33,-217.9 963.74,-217.9 "/>
<text text-anchor="middle" x="930.53" y="-201.3" font-family="Courier New" font-size="14.00">0</text>
<polyline fill="none" stroke="black" points="897.33,-193.1 963.74,-193.1 "/>
<text text-anchor="middle" x="930.53" y="-176.5" font-family="Courier New" font-size="14.00">1</text>
<polyline fill="none" stroke="black" points="963.74,-168.3 963.74,-242.7 "/>
<text text-anchor="middle" x="1143.56" y="-226.1" font-family="Courier New" font-size="14.00">type: variable (bytes)</text>
<polyline fill="none" stroke="black" points="963.74,-217.9 1323.39,-217.9 "/>
<text text-anchor="middle" x="1143.25" y="-201.3" font-family="Courier New" font-size="14.00">uint256: amount (32)</text>
<polyline fill="none" stroke="black" points="963.74,-193.1 1323.39,-193.1 "/>
<text text-anchor="middle" x="1038.95" y="-176.5" font-family="Courier New" font-size="14.00">unallocated (31)</text>
<polyline fill="none" stroke="black" points="1114.16,-168.3 1114.16,-193.1 "/>
<text text-anchor="middle" x="1218.77" y="-176.5" font-family="Courier New" font-size="14.00">bool: paymentStatus (1)</text>
</g>
<!-- 3&#45;&gt;1 -->
<g id="edge1" class="edge">
<title>3:9&#45;&gt;1</title>
<path fill="none" stroke="black" d="M861.33,-158.9C886.53,-158.9 912.79,-161.82 938.4,-166.36"/>
<polygon fill="black" stroke="black" points="938.08,-169.86 948.55,-168.25 939.36,-162.98 938.08,-169.86"/>
</g>
<!-- 2 -->
<g id="node3" class="node">
<title>2</title>
<polygon fill="#f2f2f2" stroke="black" points="951.13,-0.5 951.13,-149.3 1269.58,-149.3 1269.58,-0.5 951.13,-0.5"/>
<text text-anchor="middle" x="1110.36" y="-132.7" font-family="Courier New" font-size="14.00">address[5]: administrators &lt;&lt;Array&gt;&gt;</text>
<polyline fill="none" stroke="black" points="951.13,-124.5 1269.58,-124.5 "/>
<text text-anchor="middle" x="975.94" y="-107.9" font-family="Courier New" font-size="14.00">slot</text>
<polyline fill="none" stroke="black" points="951.13,-99.7 1000.74,-99.7 "/>
<text text-anchor="middle" x="975.94" y="-83.1" font-family="Courier New" font-size="14.00">5</text>
<polyline fill="none" stroke="black" points="951.13,-74.9 1000.74,-74.9 "/>
<text text-anchor="middle" x="975.94" y="-58.3" font-family="Courier New" font-size="14.00">6</text>
<polyline fill="none" stroke="black" points="951.13,-50.1 1000.74,-50.1 "/>
<text text-anchor="middle" x="975.94" y="-33.5" font-family="Courier New" font-size="14.00">8</text>
<polyline fill="none" stroke="black" points="951.13,-25.3 1000.74,-25.3 "/>
<text text-anchor="middle" x="975.94" y="-8.7" font-family="Courier New" font-size="14.00">9</text>
<polyline fill="none" stroke="black" points="1000.74,-0.5 1000.74,-124.5 "/>
<text text-anchor="middle" x="1134.86" y="-107.9" font-family="Courier New" font-size="14.00">type: variable (bytes)</text>
<polyline fill="none" stroke="black" points="1000.74,-99.7 1268.98,-99.7 "/>
<text text-anchor="middle" x="1075.95" y="-83.1" font-family="Courier New" font-size="14.00">unallocated (12)</text>
<polyline fill="none" stroke="black" points="1151.16,-74.9 1151.16,-99.7 "/>
<text text-anchor="middle" x="1210.07" y="-83.1" font-family="Courier New" font-size="14.00">address (20)</text>
<polyline fill="none" stroke="black" points="1000.74,-74.9 1268.98,-74.9 "/>
<text text-anchor="middle" x="1075.95" y="-58.3" font-family="Courier New" font-size="14.00">unallocated (12)</text>
<polyline fill="none" stroke="black" points="1151.16,-50.1 1151.16,-74.9 "/>
<text text-anchor="middle" x="1210.07" y="-58.3" font-family="Courier New" font-size="14.00">address (20)</text>
<polyline fill="none" stroke="black" points="1000.74,-50.1 1268.98,-50.1 "/>
<text text-anchor="middle" x="1075.95" y="-33.5" font-family="Courier New" font-size="14.00">unallocated (12)</text>
<polyline fill="none" stroke="black" points="1151.16,-25.3 1151.16,-50.1 "/>
<text text-anchor="middle" x="1210.07" y="-33.5" font-family="Courier New" font-size="14.00">address (20)</text>
<polyline fill="none" stroke="black" points="1000.74,-25.3 1268.98,-25.3 "/>
<text text-anchor="middle" x="1075.95" y="-8.7" font-family="Courier New" font-size="14.00">unallocated (12)</text>
<polyline fill="none" stroke="black" points="1151.16,-0.5 1151.16,-25.3 "/>
<text text-anchor="middle" x="1210.07" y="-8.7" font-family="Courier New" font-size="14.00">address (20)</text>
</g>
<!-- 3&#45;&gt;2 -->
<g id="edge2" class="edge">
<title>3:14&#45;&gt;2</title>
<path fill="none" stroke="black" d="M861.33,-133.9C887.33,-133.9 914.46,-130.79 940.83,-126.01"/>
<polygon fill="black" stroke="black" points="941.72,-129.4 950.89,-124.09 940.42,-122.52 941.72,-129.4"/>
</g>
</g>
</svg>
