<?xml version="1.0" encoding="UTF-8" standalone="no"?>
<!DOCTYPE svg PUBLIC "-//W3C//DTD SVG 1.1//EN"
 "http://www.w3.org/Graphics/SVG/1.1/DTD/svg11.dtd">
<!-- Generated by graphviz version 5.0.0 (20220707.1540)
 -->
<!-- Title: StorageDiagram Pages: 1 -->
<svg width="1833pt" height="543pt"
 viewBox="0.00 0.00 1833.06 542.60" xmlns="http://www.w3.org/2000/svg" xmlns:xlink="http://www.w3.org/1999/xlink">
<g id="graph0" class="graph" transform="scale(1 1) rotate(0) translate(4 538.6)">
<title>StorageDiagram</title>
<polygon fill="white" stroke="transparent" points="-4,4 -4,-538.6 1829.06,-538.6 1829.06,4 -4,4"/>
<!-- 4 -->
<g id="node1" class="node">
<title>4</title>
<polygon fill="#f2f2f2" stroke="black" points="0,-155.9 0,-379.1 869.73,-379.1 869.73,-155.9 0,-155.9"/>
<text text-anchor="middle" x="434.86" y="-362.5" font-family="Courier New" font-size="14.00">GasContract &lt;&lt;Contract&gt;&gt;</text>
<polyline fill="none" stroke="black" points="0,-354.3 869.73,-354.3 "/>
<text text-anchor="middle" x="24.8" y="-337.7" font-family="Courier New" font-size="14.00">slot</text>
<polyline fill="none" stroke="black" points="0,-329.5 49.61,-329.5 "/>
<text text-anchor="middle" x="24.8" y="-312.9" font-family="Courier New" font-size="14.00">0</text>
<polyline fill="none" stroke="black" points="0,-304.7 49.61,-304.7 "/>
<text text-anchor="middle" x="24.8" y="-288.1" font-family="Courier New" font-size="14.00">1</text>
<polyline fill="none" stroke="black" points="0,-279.9 49.61,-279.9 "/>
<text text-anchor="middle" x="24.8" y="-263.3" font-family="Courier New" font-size="14.00">2</text>
<polyline fill="none" stroke="black" points="0,-255.1 49.61,-255.1 "/>
<text text-anchor="middle" x="24.8" y="-238.5" font-family="Courier New" font-size="14.00">3</text>
<polyline fill="none" stroke="black" points="0,-230.3 49.61,-230.3 "/>
<text text-anchor="middle" x="24.8" y="-213.7" font-family="Courier New" font-size="14.00">4&#45;8</text>
<polyline fill="none" stroke="black" points="0,-205.5 49.61,-205.5 "/>
<text text-anchor="middle" x="24.8" y="-188.9" font-family="Courier New" font-size="14.00">9</text>
<polyline fill="none" stroke="black" points="0,-180.7 49.61,-180.7 "/>
<text text-anchor="middle" x="24.8" y="-164.1" font-family="Courier New" font-size="14.00">10</text>
<polyline fill="none" stroke="black" points="49.61,-155.9 49.61,-354.3 "/>
<text text-anchor="middle" x="459.67" y="-337.7" font-family="Courier New" font-size="14.00">type: &lt;inherited contract&gt;.variable (bytes)</text>
<polyline fill="none" stroke="black" points="49.61,-329.5 869.73,-329.5 "/>
<text text-anchor="middle" x="124.82" y="-312.9" font-family="Courier New" font-size="14.00">unallocated (10)</text>
<polyline fill="none" stroke="black" points="200.03,-304.7 200.03,-329.5 "/>
<text text-anchor="middle" x="296.24" y="-312.9" font-family="Courier New" font-size="14.00">uint8: wasLastOdd (1)</text>
<polyline fill="none" stroke="black" points="392.46,-304.7 392.46,-329.5 "/>
<text text-anchor="middle" x="505.47" y="-312.9" font-family="Courier New" font-size="14.00">uint8: paymentCounter (1)</text>
<polyline fill="none" stroke="black" points="618.49,-304.7 618.49,-329.5 "/>
<text text-anchor="middle" x="744.11" y="-312.9" font-family="Courier New" font-size="14.00">address: Ownable._owner (20)</text>
<polyline fill="none" stroke="black" points="49.61,-304.7 869.73,-304.7 "/>
<text text-anchor="middle" x="459.63" y="-288.1" font-family="Courier New" font-size="14.00">mapping(address=&gt;uint256): balances (32)</text>
<polyline fill="none" stroke="black" points="49.61,-279.9 869.73,-279.9 "/>
<text text-anchor="middle" x="459.53" y="-263.3" font-family="Courier New" font-size="14.00">mapping(address=&gt;Payment[]): payments (32)</text>
<polyline fill="none" stroke="black" points="49.61,-255.1 869.73,-255.1 "/>
<text text-anchor="middle" x="459.33" y="-238.5" font-family="Courier New" font-size="14.00">mapping(address=&gt;uint256): whitelist (32)</text>
<polyline fill="none" stroke="black" points="49.61,-230.3 869.73,-230.3 "/>
<text text-anchor="middle" x="459.53" y="-213.7" font-family="Courier New" font-size="14.00">address[5]: administrators (160)</text>
<polyline fill="none" stroke="black" points="49.61,-205.5 869.73,-205.5 "/>
<text text-anchor="middle" x="459.64" y="-188.9" font-family="Courier New" font-size="14.00">mapping(address=&gt;uint256): isOddWhitelistUser (32)</text>
<polyline fill="none" stroke="black" points="49.61,-180.7 869.73,-180.7 "/>
<text text-anchor="middle" x="459.64" y="-164.1" font-family="Courier New" font-size="14.00">mapping(address=&gt;ImportantStruct): whiteListStruct (32)</text>
</g>
<!-- 1 -->
<g id="node2" class="node">
<title>1</title>
<polygon fill="#f2f2f2" stroke="black" points="1131.36,-310.9 1131.36,-534.1 1599.43,-534.1 1599.43,-310.9 1131.36,-310.9"/>
<text text-anchor="middle" x="1365.4" y="-517.5" font-family="Courier New" font-size="14.00">Payment &lt;&lt;Struct&gt;&gt;</text>
<polyline fill="none" stroke="black" points="1131.36,-509.3 1599.43,-509.3 "/>
<text text-anchor="middle" x="1164.57" y="-492.7" font-family="Courier New" font-size="14.00">offset</text>
<polyline fill="none" stroke="black" points="1131.36,-484.5 1197.77,-484.5 "/>
<text text-anchor="middle" x="1164.57" y="-467.9" font-family="Courier New" font-size="14.00">0</text>
<polyline fill="none" stroke="black" points="1131.36,-459.7 1197.77,-459.7 "/>
<text text-anchor="middle" x="1164.57" y="-443.1" font-family="Courier New" font-size="14.00">1</text>
<polyline fill="none" stroke="black" points="1131.36,-434.9 1197.77,-434.9 "/>
<text text-anchor="middle" x="1164.57" y="-418.3" font-family="Courier New" font-size="14.00">2</text>
<polyline fill="none" stroke="black" points="1131.36,-410.1 1197.77,-410.1 "/>
<text text-anchor="middle" x="1164.57" y="-393.5" font-family="Courier New" font-size="14.00">3</text>
<polyline fill="none" stroke="black" points="1131.36,-385.3 1197.77,-385.3 "/>
<text text-anchor="middle" x="1164.57" y="-368.7" font-family="Courier New" font-size="14.00">4</text>
<polyline fill="none" stroke="black" points="1131.36,-360.5 1197.77,-360.5 "/>
<text text-anchor="middle" x="1164.57" y="-343.9" font-family="Courier New" font-size="14.00">5</text>
<polyline fill="none" stroke="black" points="1131.36,-335.7 1197.77,-335.7 "/>
<text text-anchor="middle" x="1164.57" y="-319.1" font-family="Courier New" font-size="14.00">6</text>
<polyline fill="none" stroke="black" points="1197.77,-310.9 1197.77,-509.3 "/>
<text text-anchor="middle" x="1398.6" y="-492.7" font-family="Courier New" font-size="14.00">type: variable (bytes)</text>
<polyline fill="none" stroke="black" points="1197.77,-484.5 1599.43,-484.5 "/>
<text text-anchor="middle" x="1272.98" y="-467.9" font-family="Courier New" font-size="14.00">unallocated (31)</text>
<polyline fill="none" stroke="black" points="1348.19,-459.7 1348.19,-484.5 "/>
<text text-anchor="middle" x="1473.81" y="-467.9" font-family="Courier New" font-size="14.00">PaymentType: paymentType (1)</text>
<polyline fill="none" stroke="black" points="1197.77,-459.7 1599.43,-459.7 "/>
<text text-anchor="middle" x="1398.39" y="-443.1" font-family="Courier New" font-size="14.00">uint256: paymentID (32)</text>
<polyline fill="none" stroke="black" points="1197.77,-434.9 1599.43,-434.9 "/>
<text text-anchor="middle" x="1285.48" y="-418.3" font-family="Courier New" font-size="14.00">unallocated (31)</text>
<polyline fill="none" stroke="black" points="1373.19,-410.1 1373.19,-434.9 "/>
<text text-anchor="middle" x="1486.11" y="-418.3" font-family="Courier New" font-size="14.00">bool: adminUpdated (1)</text>
<polyline fill="none" stroke="black" points="1197.77,-410.1 1599.43,-410.1 "/>
<text text-anchor="middle" x="1398.49" y="-393.5" font-family="Courier New" font-size="14.00">string: recipientName (32)</text>
<polyline fill="none" stroke="black" points="1197.77,-385.3 1599.43,-385.3 "/>
<text text-anchor="middle" x="1283.48" y="-368.7" font-family="Courier New" font-size="14.00">unallocated (12)</text>
<polyline fill="none" stroke="black" points="1369.19,-360.5 1369.19,-385.3 "/>
<text text-anchor="middle" x="1484.31" y="-368.7" font-family="Courier New" font-size="14.00">address: recipient (20)</text>
<polyline fill="none" stroke="black" points="1197.77,-360.5 1599.43,-360.5 "/>
<text text-anchor="middle" x="1291.48" y="-343.9" font-family="Courier New" font-size="14.00">unallocated (12)</text>
<polyline fill="none" stroke="black" points="1385.19,-335.7 1385.19,-360.5 "/>
<text text-anchor="middle" x="1492" y="-343.9" font-family="Courier New" font-size="14.00">address: admin (20)</text>
<polyline fill="none" stroke="black" points="1197.77,-335.7 1599.43,-335.7 "/>
<text text-anchor="middle" x="1398.28" y="-319.1" font-family="Courier New" font-size="14.00">uint256: amount (32)</text>
</g>
<!-- 4&#45;&gt;1 -->
<g id="edge1" class="edge">
<title>4:12&#45;&gt;1</title>
<path fill="none" stroke="black" d="M869.73,-267.5C891.74,-267.5 886.49,-290.81 905.73,-301.5 971.69,-338.17 1049.19,-364.09 1121.53,-382.26"/>
<polygon fill="black" stroke="black" points="1120.69,-385.66 1131.24,-384.66 1122.37,-378.86 1120.69,-385.66"/>
</g>
<!-- 2 -->
<g id="node3" class="node">
<title>2</title>
<polygon fill="#f2f2f2" stroke="black" points="1206.17,-143.1 1206.17,-291.9 1524.62,-291.9 1524.62,-143.1 1206.17,-143.1"/>
<text text-anchor="middle" x="1365.4" y="-275.3" font-family="Courier New" font-size="14.00">address[5]: administrators &lt;&lt;Array&gt;&gt;</text>
<polyline fill="none" stroke="black" points="1206.17,-267.1 1524.62,-267.1 "/>
<text text-anchor="middle" x="1230.97" y="-250.5" font-family="Courier New" font-size="14.00">slot</text>
<polyline fill="none" stroke="black" points="1206.17,-242.3 1255.78,-242.3 "/>
<text text-anchor="middle" x="1230.97" y="-225.7" font-family="Courier New" font-size="14.00">4</text>
<polyline fill="none" stroke="black" points="1206.17,-217.5 1255.78,-217.5 "/>
<text text-anchor="middle" x="1230.97" y="-200.9" font-family="Courier New" font-size="14.00">5</text>
<polyline fill="none" stroke="black" points="1206.17,-192.7 1255.78,-192.7 "/>
<text text-anchor="middle" x="1230.97" y="-176.1" font-family="Courier New" font-size="14.00">7</text>
<polyline fill="none" stroke="black" points="1206.17,-167.9 1255.78,-167.9 "/>
<text text-anchor="middle" x="1230.97" y="-151.3" font-family="Courier New" font-size="14.00">8</text>
<polyline fill="none" stroke="black" points="1255.78,-143.1 1255.78,-267.1 "/>
<text text-anchor="middle" x="1389.9" y="-250.5" font-family="Courier New" font-size="14.00">type: variable (bytes)</text>
<polyline fill="none" stroke="black" points="1255.78,-242.3 1524.01,-242.3 "/>
<text text-anchor="middle" x="1330.99" y="-225.7" font-family="Courier New" font-size="14.00">unallocated (12)</text>
<polyline fill="none" stroke="black" points="1406.2,-217.5 1406.2,-242.3 "/>
<text text-anchor="middle" x="1465.11" y="-225.7" font-family="Courier New" font-size="14.00">address (20)</text>
<polyline fill="none" stroke="black" points="1255.78,-217.5 1524.01,-217.5 "/>
<text text-anchor="middle" x="1330.99" y="-200.9" font-family="Courier New" font-size="14.00">unallocated (12)</text>
<polyline fill="none" stroke="black" points="1406.2,-192.7 1406.2,-217.5 "/>
<text text-anchor="middle" x="1465.11" y="-200.9" font-family="Courier New" font-size="14.00">address (20)</text>
<polyline fill="none" stroke="black" points="1255.78,-192.7 1524.01,-192.7 "/>
<text text-anchor="middle" x="1330.99" y="-176.1" font-family="Courier New" font-size="14.00">unallocated (12)</text>
<polyline fill="none" stroke="black" points="1406.2,-167.9 1406.2,-192.7 "/>
<text text-anchor="middle" x="1465.11" y="-176.1" font-family="Courier New" font-size="14.00">address (20)</text>
<polyline fill="none" stroke="black" points="1255.78,-167.9 1524.01,-167.9 "/>
<text text-anchor="middle" x="1330.99" y="-151.3" font-family="Courier New" font-size="14.00">unallocated (12)</text>
<polyline fill="none" stroke="black" points="1406.2,-143.1 1406.2,-167.9 "/>
<text text-anchor="middle" x="1465.11" y="-151.3" font-family="Courier New" font-size="14.00">address (20)</text>
</g>
<!-- 4&#45;&gt;2 -->
<g id="edge2" class="edge">
<title>4:18&#45;&gt;2</title>
<path fill="none" stroke="black" d="M869.73,-217.5C978.28,-217.5 1100.24,-217.5 1195.89,-217.5"/>
<polygon fill="black" stroke="black" points="1195.95,-221 1205.95,-217.5 1195.95,-214 1195.95,-221"/>
</g>
<!-- 3 -->
<g id="node4" class="node">
<title>3</title>
<polygon fill="#f2f2f2" stroke="black" points="905.73,-0.5 905.73,-124.5 1825.06,-124.5 1825.06,-0.5 905.73,-0.5"/>
<text text-anchor="middle" x="1365.4" y="-107.9" font-family="Courier New" font-size="14.00">ImportantStruct &lt;&lt;Struct&gt;&gt;</text>
<polyline fill="none" stroke="black" points="905.73,-99.7 1825.06,-99.7 "/>
<text text-anchor="middle" x="938.93" y="-83.1" font-family="Courier New" font-size="14.00">offset</text>
<polyline fill="none" stroke="black" points="905.73,-74.9 972.14,-74.9 "/>
<text text-anchor="middle" x="938.93" y="-58.3" font-family="Courier New" font-size="14.00">0</text>
<polyline fill="none" stroke="black" points="905.73,-50.1 972.14,-50.1 "/>
<text text-anchor="middle" x="938.93" y="-33.5" font-family="Courier New" font-size="14.00">1</text>
<polyline fill="none" stroke="black" points="905.73,-25.3 972.14,-25.3 "/>
<text text-anchor="middle" x="938.93" y="-8.7" font-family="Courier New" font-size="14.00">2</text>
<polyline fill="none" stroke="black" points="972.14,-0.5 972.14,-99.7 "/>
<text text-anchor="middle" x="1398.6" y="-83.1" font-family="Courier New" font-size="14.00">type: variable (bytes)</text>
<polyline fill="none" stroke="black" points="972.14,-74.9 1825.06,-74.9 "/>
<text text-anchor="middle" x="1398.15" y="-58.3" font-family="Courier New" font-size="14.00">uint256: amount (32)</text>
<polyline fill="none" stroke="black" points="972.14,-50.1 1825.06,-50.1 "/>
<text text-anchor="middle" x="1398.55" y="-33.5" font-family="Courier New" font-size="14.00">uint256: bigValue (32)</text>
<polyline fill="none" stroke="black" points="972.14,-25.3 1825.06,-25.3 "/>
<text text-anchor="middle" x="1043.15" y="-8.7" font-family="Courier New" font-size="14.00">unallocated (9)</text>
<polyline fill="none" stroke="black" points="1114.16,-0.5 1114.16,-25.3 "/>
<text text-anchor="middle" x="1206.17" y="-8.7" font-family="Courier New" font-size="14.00">address: sender (20)</text>
<polyline fill="none" stroke="black" points="1298.18,-0.5 1298.18,-25.3 "/>
<text text-anchor="middle" x="1402.8" y="-8.7" font-family="Courier New" font-size="14.00">bool: paymentStatus (1)</text>
<polyline fill="none" stroke="black" points="1507.42,-0.5 1507.42,-25.3 "/>
<text text-anchor="middle" x="1586.83" y="-8.7" font-family="Courier New" font-size="14.00">uint8: valueB (1)</text>
<polyline fill="none" stroke="black" points="1666.24,-0.5 1666.24,-25.3 "/>
<text text-anchor="middle" x="1745.65" y="-8.7" font-family="Courier New" font-size="14.00">uint8: valueA (1)</text>
</g>
<!-- 4&#45;&gt;3 -->
<g id="edge3" class="edge">
<title>4:26&#45;&gt;3</title>
<path fill="none" stroke="black" d="M869.73,-168.5C892.04,-168.5 885.76,-143.46 905.73,-133.5 908.94,-131.9 912.17,-130.34 915.43,-128.81"/>
<polygon fill="black" stroke="black" points="917.04,-131.92 924.68,-124.58 914.13,-125.55 917.04,-131.92"/>
</g>
</g>
</svg>
