<?xml version="1.0" encoding="UTF-8" standalone="no"?>
<!DOCTYPE svg PUBLIC "-//W3C//DTD SVG 1.1//EN"
 "http://www.w3.org/Graphics/SVG/1.1/DTD/svg11.dtd">
<!-- Generated by graphviz version 5.0.0 (20220707.1540)
 -->
<!-- Title: UmlClassDiagram Pages: 1 -->
<svg width="760pt" height="1164pt"
 viewBox="0.00 0.00 759.85 1163.80" xmlns="http://www.w3.org/2000/svg" xmlns:xlink="http://www.w3.org/1999/xlink">
<g id="graph0" class="graph" transform="scale(1 1) rotate(0) translate(4 1159.8)">
<title>UmlClassDiagram</title>
<polygon fill="white" stroke="transparent" points="-4,4 -4,-1159.8 755.85,-1159.8 755.85,4 -4,4"/>
<!-- 0 -->
<g id="node1" class="node">
<title>0</title>
<polygon fill="#f2f2f2" stroke="black" points="601.3,-817.5 601.3,-934.3 751.85,-934.3 751.85,-817.5 601.3,-817.5"/>
<text text-anchor="middle" x="676.58" y="-917.7" font-family="Times,serif" font-size="14.00">Constants</text>
<text text-anchor="middle" x="676.58" y="-900.9" font-family="Times,serif" font-size="14.00">Gas.sol</text>
<polyline fill="none" stroke="black" points="601.3,-892.7 751.85,-892.7 "/>
<text text-anchor="start" x="609.3" y="-876.1" font-family="Times,serif" font-size="14.00">Public:</text>
<text text-anchor="start" x="609.3" y="-859.3" font-family="Times,serif" font-size="14.00"> &#160;&#160;tradeFlag: uint256</text>
<text text-anchor="start" x="609.3" y="-842.5" font-family="Times,serif" font-size="14.00"> &#160;&#160;basicFlag: uint256</text>
<text text-anchor="start" x="609.3" y="-825.7" font-family="Times,serif" font-size="14.00"> &#160;&#160;dividendFlag: uint256</text>
</g>
<!-- 2 -->
<g id="node2" class="node">
<title>2</title>
<polygon fill="#f2f2f2" stroke="black" points="0,-1004.9 0,-1155.3 115.16,-1155.3 115.16,-1004.9 0,-1004.9"/>
<text text-anchor="middle" x="57.58" y="-1138.7" font-family="Times,serif" font-size="14.00">&lt;&lt;Enum&gt;&gt;</text>
<text text-anchor="middle" x="57.58" y="-1121.9" font-family="Times,serif" font-size="14.00">PaymentType</text>
<text text-anchor="middle" x="57.58" y="-1105.1" font-family="Times,serif" font-size="14.00">Gas.sol</text>
<polyline fill="none" stroke="black" points="0,-1096.9 115.16,-1096.9 "/>
<text text-anchor="start" x="8" y="-1080.3" font-family="Times,serif" font-size="14.00">Unknown: 0</text>
<text text-anchor="start" x="8" y="-1063.5" font-family="Times,serif" font-size="14.00">BasicPayment: 1</text>
<text text-anchor="start" x="8" y="-1046.7" font-family="Times,serif" font-size="14.00">Refund: 2</text>
<text text-anchor="start" x="8" y="-1029.9" font-family="Times,serif" font-size="14.00">Dividend: 3</text>
<text text-anchor="start" x="8" y="-1013.1" font-family="Times,serif" font-size="14.00">GroupPayment: 4</text>
</g>
<!-- 1 -->
<g id="node6" class="node">
<title>1</title>
<polygon fill="#f2f2f2" stroke="black" points="29.87,-0.5 29.87,-746.9 695.29,-746.9 695.29,-0.5 29.87,-0.5"/>
<text text-anchor="middle" x="362.58" y="-730.3" font-family="Times,serif" font-size="14.00">GasContract</text>
<text text-anchor="middle" x="362.58" y="-713.5" font-family="Times,serif" font-size="14.00">Gas.sol</text>
<polyline fill="none" stroke="black" points="29.87,-705.3 695.29,-705.3 "/>
<text text-anchor="start" x="37.87" y="-688.7" font-family="Times,serif" font-size="14.00">Private:</text>
<text text-anchor="start" x="37.87" y="-671.9" font-family="Times,serif" font-size="14.00"> &#160;&#160;totalSupply: uint256</text>
<text text-anchor="start" x="37.87" y="-655.1" font-family="Times,serif" font-size="14.00"> &#160;&#160;paymentCounter: uint256</text>
<text text-anchor="start" x="37.87" y="-638.3" font-family="Times,serif" font-size="14.00"> &#160;&#160;tradePercent: uint256</text>
<text text-anchor="start" x="37.87" y="-621.5" font-family="Times,serif" font-size="14.00"> &#160;&#160;contractOwner: address</text>
<text text-anchor="start" x="37.87" y="-604.7" font-family="Times,serif" font-size="14.00"> &#160;&#160;tradeMode: uint256</text>
<text text-anchor="start" x="37.87" y="-587.9" font-family="Times,serif" font-size="14.00"> &#160;&#160;isReady: bool</text>
<text text-anchor="start" x="37.87" y="-571.1" font-family="Times,serif" font-size="14.00"> &#160;&#160;paymentHistory: History[]</text>
<text text-anchor="start" x="37.87" y="-554.3" font-family="Times,serif" font-size="14.00"> &#160;&#160;isOddWhitelistUser: mapping(address=&gt;uint256)</text>
<text text-anchor="start" x="37.87" y="-537.5" font-family="Times,serif" font-size="14.00"> &#160;&#160;whiteListStruct: mapping(address=&gt;ImportantStruct)</text>
<text text-anchor="start" x="37.87" y="-520.7" font-family="Times,serif" font-size="14.00">Public:</text>
<text text-anchor="start" x="37.87" y="-503.9" font-family="Times,serif" font-size="14.00"> &#160;&#160;balances: mapping(address=&gt;uint256)</text>
<text text-anchor="start" x="37.87" y="-487.1" font-family="Times,serif" font-size="14.00"> &#160;&#160;payments: mapping(address=&gt;Payment[])</text>
<text text-anchor="start" x="37.87" y="-470.3" font-family="Times,serif" font-size="14.00"> &#160;&#160;whitelist: mapping(address=&gt;uint256)</text>
<text text-anchor="start" x="37.87" y="-453.5" font-family="Times,serif" font-size="14.00"> &#160;&#160;administrators: address[5]</text>
<text text-anchor="start" x="37.87" y="-436.7" font-family="Times,serif" font-size="14.00"> &#160;&#160;defaultPayment: PaymentType</text>
<text text-anchor="start" x="37.87" y="-419.9" font-family="Times,serif" font-size="14.00"> &#160;&#160;wasLastOdd: uint256</text>
<polyline fill="none" stroke="black" points="29.87,-411.7 695.29,-411.7 "/>
<text text-anchor="start" x="37.87" y="-395.1" font-family="Times,serif" font-size="14.00">Private:</text>
<text text-anchor="start" x="37.87" y="-378.3" font-family="Times,serif" font-size="14.00"> &#160;&#160;&#160;checkForAdmin(_user: address): (admin_: bool)</text>
<text text-anchor="start" x="37.87" y="-361.5" font-family="Times,serif" font-size="14.00"> &#160;&#160;&#160;getTradingMode(): (mode_: bool)</text>
<text text-anchor="start" x="37.87" y="-344.7" font-family="Times,serif" font-size="14.00"> &#160;&#160;&#160;updatePayment(_user: address, _ID: uint256, _amount: uint256, _type: PaymentType) &lt;&lt;onlyAdminOrOwner&gt;&gt;</text>
<text text-anchor="start" x="37.87" y="-327.9" font-family="Times,serif" font-size="14.00">External:</text>
<text text-anchor="start" x="37.87" y="-311.1" font-family="Times,serif" font-size="14.00"> &#160;&#160;&#160;&lt;&lt;payable&gt;&gt; null()</text>
<text text-anchor="start" x="37.87" y="-294.3" font-family="Times,serif" font-size="14.00"> &#160;&#160;&#160;&lt;&lt;payable&gt;&gt; null()</text>
<text text-anchor="start" x="37.87" y="-277.5" font-family="Times,serif" font-size="14.00">Public:</text>
<text text-anchor="start" x="37.87" y="-260.7" font-family="Times,serif" font-size="14.00"> &#160;&#160;&#160;&lt;&lt;payable&gt;&gt; getPaymentHistory(): (paymentHistory_: History[])</text>
<text text-anchor="start" x="37.87" y="-243.9" font-family="Times,serif" font-size="14.00"> &#160;&#160;&#160;&lt;&lt;event&gt;&gt; AddedToWhitelist(userAddress: address, tier: uint256)</text>
<text text-anchor="start" x="37.87" y="-227.1" font-family="Times,serif" font-size="14.00"> &#160;&#160;&#160;&lt;&lt;event&gt;&gt; supplyChanged(address, uint256)</text>
<text text-anchor="start" x="37.87" y="-210.3" font-family="Times,serif" font-size="14.00"> &#160;&#160;&#160;&lt;&lt;event&gt;&gt; Transfer(recipient: address, amount: uint256)</text>
<text text-anchor="start" x="37.87" y="-193.5" font-family="Times,serif" font-size="14.00"> &#160;&#160;&#160;&lt;&lt;event&gt;&gt; PaymentUpdated(admin: address, ID: uint256, amount: uint256, recipient: string)</text>
<text text-anchor="start" x="37.87" y="-176.7" font-family="Times,serif" font-size="14.00"> &#160;&#160;&#160;&lt;&lt;event&gt;&gt; WhiteListTransfer(address)</text>
<text text-anchor="start" x="37.87" y="-159.9" font-family="Times,serif" font-size="14.00"> &#160;&#160;&#160;&lt;&lt;modifier&gt;&gt; onlyAdminOrOwner()</text>
<text text-anchor="start" x="37.87" y="-143.1" font-family="Times,serif" font-size="14.00"> &#160;&#160;&#160;&lt;&lt;modifier&gt;&gt; checkIfWhiteListed(sender: address)</text>
<text text-anchor="start" x="37.87" y="-126.3" font-family="Times,serif" font-size="14.00"> &#160;&#160;&#160;constructor(_admins: address[], _totalSupply: uint256)</text>
<text text-anchor="start" x="37.87" y="-109.5" font-family="Times,serif" font-size="14.00"> &#160;&#160;&#160;balanceOf(_user: address): (balance_: uint256)</text>
<text text-anchor="start" x="37.87" y="-92.7" font-family="Times,serif" font-size="14.00"> &#160;&#160;&#160;addHistory(_updateAddress: address, _tradeMode: bool): (status_: bool, tradeMode_: bool)</text>
<text text-anchor="start" x="37.87" y="-75.9" font-family="Times,serif" font-size="14.00"> &#160;&#160;&#160;getPayments(_user: address): (payments_: Payment[])</text>
<text text-anchor="start" x="37.87" y="-59.1" font-family="Times,serif" font-size="14.00"> &#160;&#160;&#160;transfer(_recipient: address, _amount: uint256, _name: string): (status_: bool)</text>
<text text-anchor="start" x="37.87" y="-42.3" font-family="Times,serif" font-size="14.00"> &#160;&#160;&#160;addToWhitelist(_userAddrs: address, _tier: uint256) &lt;&lt;onlyAdminOrOwner&gt;&gt;</text>
<text text-anchor="start" x="37.87" y="-25.5" font-family="Times,serif" font-size="14.00"> &#160;&#160;&#160;whiteTransfer(_recipient: address, _amount: uint256) &lt;&lt;checkIfWhiteListed&gt;&gt;</text>
<text text-anchor="start" x="37.87" y="-8.7" font-family="Times,serif" font-size="14.00"> &#160;&#160;&#160;getPaymentStatus(sender: address): (bool, uint256)</text>
</g>
<!-- 2&#45;&gt;1 -->
<g id="edge2" class="edge">
<title>2&#45;&gt;1</title>
<path fill="none" stroke="black" d="M61.78,-1004.9C63.39,-943.72 68.63,-855.58 94.58,-783.4 97.57,-775.08 100.77,-766.77 104.15,-758.48"/>
<polygon fill="black" stroke="black" points="104.24,-758.25 102.87,-751.17 108.88,-747.19 110.25,-754.26 104.24,-758.25"/>
</g>
<!-- 3 -->
<g id="node3" class="node">
<title>3</title>
<polygon fill="#f2f2f2" stroke="black" points="94.52,-783.9 94.52,-967.9 272.64,-967.9 272.64,-783.9 94.52,-783.9"/>
<text text-anchor="middle" x="183.58" y="-951.3" font-family="Times,serif" font-size="14.00">&lt;&lt;Struct&gt;&gt;</text>
<text text-anchor="middle" x="183.58" y="-934.5" font-family="Times,serif" font-size="14.00">Payment</text>
<text text-anchor="middle" x="183.58" y="-917.7" font-family="Times,serif" font-size="14.00">Gas.sol</text>
<polyline fill="none" stroke="black" points="94.52,-909.5 272.64,-909.5 "/>
<text text-anchor="start" x="102.52" y="-892.9" font-family="Times,serif" font-size="14.00">paymentType: PaymentType</text>
<text text-anchor="start" x="102.52" y="-876.1" font-family="Times,serif" font-size="14.00">paymentID: uint256</text>
<text text-anchor="start" x="102.52" y="-859.3" font-family="Times,serif" font-size="14.00">amount: uint256</text>
<text text-anchor="start" x="102.52" y="-842.5" font-family="Times,serif" font-size="14.00">adminUpdated: bool</text>
<text text-anchor="start" x="102.52" y="-825.7" font-family="Times,serif" font-size="14.00">recipientName: string</text>
<text text-anchor="start" x="102.52" y="-808.9" font-family="Times,serif" font-size="14.00">recipient: address</text>
<text text-anchor="start" x="102.52" y="-792.1" font-family="Times,serif" font-size="14.00">admin: address</text>
</g>
<!-- 3&#45;&gt;2 -->
<g id="edge1" class="edge">
<title>3&#45;&gt;2</title>
<path fill="none" stroke="black" stroke-dasharray="5,2" d="M126.84,-967.94C121.05,-977.24 115.19,-986.65 109.45,-995.85"/>
<polygon fill="black" stroke="black" points="106.32,-994.27 104,-1004.6 112.26,-997.97 106.32,-994.27"/>
</g>
<!-- 3&#45;&gt;1 -->
<g id="edge3" class="edge">
<title>3&#45;&gt;1</title>
<path fill="none" stroke="black" d="M221.55,-783.74C224.62,-775.64 227.81,-767.15 231.09,-758.36"/>
<polygon fill="black" stroke="black" points="231.11,-758.31 229.46,-751.29 235.3,-747.06 236.95,-754.08 231.11,-758.31"/>
</g>
<!-- 4 -->
<g id="node4" class="node">
<title>4</title>
<polygon fill="#f2f2f2" stroke="black" points="291,-817.5 291,-934.3 434.15,-934.3 434.15,-817.5 291,-817.5"/>
<text text-anchor="middle" x="362.58" y="-917.7" font-family="Times,serif" font-size="14.00">&lt;&lt;Struct&gt;&gt;</text>
<text text-anchor="middle" x="362.58" y="-900.9" font-family="Times,serif" font-size="14.00">History</text>
<text text-anchor="middle" x="362.58" y="-884.1" font-family="Times,serif" font-size="14.00">Gas.sol</text>
<polyline fill="none" stroke="black" points="291,-875.9 434.15,-875.9 "/>
<text text-anchor="start" x="299" y="-859.3" font-family="Times,serif" font-size="14.00">lastUpdate: uint256</text>
<text text-anchor="start" x="299" y="-842.5" font-family="Times,serif" font-size="14.00">updatedBy: address</text>
<text text-anchor="start" x="299" y="-825.7" font-family="Times,serif" font-size="14.00">blockNumber: uint256</text>
</g>
<!-- 4&#45;&gt;1 -->
<g id="edge4" class="edge">
<title>4&#45;&gt;1</title>
<path fill="none" stroke="black" d="M367.07,-817.43C367.6,-800.64 368.03,-780.91 368.37,-759.27"/>
<polygon fill="black" stroke="black" points="368.38,-759.06 364.46,-753 368.55,-747.06 372.46,-753.12 368.38,-759.06"/>
</g>
<!-- 5 -->
<g id="node5" class="node">
<title>5</title>
<polygon fill="#f2f2f2" stroke="black" points="452.22,-792.3 452.22,-959.5 582.93,-959.5 582.93,-792.3 452.22,-792.3"/>
<text text-anchor="middle" x="517.58" y="-942.9" font-family="Times,serif" font-size="14.00">&lt;&lt;Struct&gt;&gt;</text>
<text text-anchor="middle" x="517.58" y="-926.1" font-family="Times,serif" font-size="14.00">ImportantStruct</text>
<text text-anchor="middle" x="517.58" y="-909.3" font-family="Times,serif" font-size="14.00">Gas.sol</text>
<polyline fill="none" stroke="black" points="452.22,-901.1 582.93,-901.1 "/>
<text text-anchor="start" x="460.22" y="-884.5" font-family="Times,serif" font-size="14.00">amount: uint256</text>
<text text-anchor="start" x="460.22" y="-867.7" font-family="Times,serif" font-size="14.00">valueA: uint256</text>
<text text-anchor="start" x="460.22" y="-850.9" font-family="Times,serif" font-size="14.00">bigValue: uint256</text>
<text text-anchor="start" x="460.22" y="-834.1" font-family="Times,serif" font-size="14.00">valueB: uint256</text>
<text text-anchor="start" x="460.22" y="-817.3" font-family="Times,serif" font-size="14.00">paymentStatus: bool</text>
<text text-anchor="start" x="460.22" y="-800.5" font-family="Times,serif" font-size="14.00">sender: address</text>
</g>
<!-- 5&#45;&gt;1 -->
<g id="edge5" class="edge">
<title>5&#45;&gt;1</title>
<path fill="none" stroke="black" d="M497.08,-792.05C494.09,-781.65 490.86,-770.55 487.43,-758.89"/>
<polygon fill="black" stroke="black" points="487.34,-758.57 481.8,-753.95 483.94,-747.06 489.47,-751.68 487.34,-758.57"/>
</g>
<!-- 1&#45;&gt;0 -->
<g id="edge6" class="edge">
<title>1&#45;&gt;0</title>
<path fill="none" stroke="black" d="M596.33,-747.06C606.31,-762.97 615.75,-778 624.4,-791.78"/>
<polygon fill="none" stroke="black" points="615.66,-797.6 640.5,-817.43 633.44,-786.44 615.66,-797.6"/>
</g>
<!-- 1&#45;&gt;2 -->
<g id="edge7" class="edge">
<title>1&#45;&gt;2</title>
<path fill="none" stroke="black" d="M90.88,-747.19C85.72,-759.22 80.93,-771.3 76.58,-783.4 52.05,-851.64 46.02,-934.13 47.06,-994.62"/>
<polygon fill="black" stroke="black" points="43.57,-994.98 47.31,-1004.9 50.57,-994.81 43.57,-994.98"/>
</g>
<!-- 1&#45;&gt;3 -->
<g id="edge10" class="edge">
<title>1&#45;&gt;3</title>
<path fill="none" stroke="black" stroke-dasharray="5,2" d="M223.35,-747.06C220.14,-756.41 217.04,-765.45 214.1,-774.12"/>
<polygon fill="black" stroke="black" points="210.74,-773.14 210.85,-783.74 217.37,-775.39 210.74,-773.14"/>
</g>
<!-- 1&#45;&gt;4 -->
<g id="edge8" class="edge">
<title>1&#45;&gt;4</title>
<path fill="none" stroke="black" d="M356.6,-747.06C356.91,-769.16 357.3,-789.58 357.79,-807.31"/>
<polygon fill="black" stroke="black" points="354.29,-807.53 358.08,-817.43 361.29,-807.33 354.29,-807.53"/>
</g>
<!-- 1&#45;&gt;5 -->
<g id="edge9" class="edge">
<title>1&#45;&gt;5</title>
<path fill="none" stroke="black" d="M471.99,-747.06C476,-759.44 479.87,-771.29 483.55,-782.44"/>
<polygon fill="black" stroke="black" points="480.26,-783.66 486.73,-792.05 486.91,-781.45 480.26,-783.66"/>
</g>
</g>
</svg>
